<?xml version="1.0" encoding="utf-8"?>
<!-- Generator: Adobe Illustrator 19.2.1, SVG Export Plug-In . SVG Version: 6.00 Build 0)  -->
<svg version="1.1" id="layer" xmlns="http://www.w3.org/2000/svg" xmlns:xlink="http://www.w3.org/1999/xlink" x="0px" y="0px"
	 viewBox="0 0 652 652" style="enable-background:new 0 0 652 652;" xml:space="preserve">
<style type="text/css">
	.st0{fill:#24525E;}
</style>
<g>
	<path class="st0" d="M20.9,370.1c5.6-7,13-5.3,20.3-4.5c5.3,0.7,10.4,2,15.8,2c3.4,0.1,5.6-1.3,7.8-3.7c4.2-4.6,7.2-10.1,11.6-14.5
		c7.1-7.1,15.3-12.2,24.9-15.5c16.1-5.6,32.6-10.1,48.5-16.5c13.4-5.5,23.6-14.3,30.8-26.9c4.7-8.2,9.3-16.5,15.1-24.1
		c7.9-10,18.1-15.2,30.8-15.1c6.7,0.1,12.5-2.8,18.4-5.2c0.5,0,1,0,1.5,0c2.5,0.9,3.3,2.9,3.3,5.4c0,6.8-2.3,12.7-7.5,17.1
		c-3.5,2.9-7.2,5.6-10.9,8.2c-5.1,3.6-8.2,8.3-9.7,14.4c-2.9,12.5-5.2,25.2-9.2,37.6c-3.5,11-7.8,21.6-16,30.3
		c-2.5,2.7-5.4,4.9-8.7,6.7c-1.9,0.9-2.9,0.9-2.6-1.6c0.2-1.9,0.2-3.8-0.2-5.8c-1.1,2.4-2.1,4.7-3.2,7.1c-7.4,15-18.3,25.6-35,29.4
		c-0.2,0.1-0.5,0.2-0.7,0.2c-1.9,0.2-4.5,1.2-5.4-0.2c-1.1-1.8,1.7-2.9,2.7-4.3c8-10.3,13.6-21.5,14.7-34.8
		c-1.2-0.1-1.1,0.9-1.3,1.4c-0.3,0.5-0.5,1.2-0.7,1.8c-1.1,3-2,6-3.7,8.7c-1.7,2.8-4.1,4.2-7.4,4.3c-8.6,0.2-17.2-0.8-25.6-2
		c-7.5-1-15.1-1.6-22.7-1c-8.6,0.6-16.1,4.5-23,9.2c-8,5.4-16.5,9.8-25.2,13.8c-3.9,1.8-8.1,3-12.2,4.1c-3.1,0-6,0-9.1,0
		c-1.3-2-0.7-3.9,0.4-5.6c1.6-2.4,3.2-4.8,4.9-7.1c0.9-1.2,1.8-2.4,0-3.5c-4-2.4-7.1-6.1-11.4-8C20.9,371.2,20.9,370.6,20.9,370.1z"
		/>
	<path class="st0" d="M620.9,339c-2.5,9.1-6.6,12.3-16.1,13.2c-10.7,0.9-21.5,0.2-32.2,0.5c-2.5,0.1-3.7-0.9-3.6-3.6
		c0.1-16.2,0.1-32.4,0-48.5c0-2,0.5-3.5,2.9-3.5c11.5,0.2,23.1-0.9,34.5,0.7c9.3,1.3,14,7.9,12.2,17c-0.8,4-3.2,6.7-7.8,8.5
		c6.4,2,9,6.3,10.1,11.8C620.9,336.5,620.9,337.8,620.9,339z M589.3,347.1c4.8,0,9.6,0.2,14.3-0.6c5.7-0.9,8.7-3.8,8.9-9.1
		c0.2-6-2.2-9.3-8.2-10.4c-8.5-1.5-17.1-0.4-25.7-0.6c-1.9-0.1-2.2,1.3-2.2,2.8c0,4.9,0.1,9.9,0,14.7c-0.1,2.3,0.8,3.2,3.1,3.1
		C582.7,347,586,347.1,589.3,347.1z M590.7,320.7c0-0.1,0-0.2,0-0.2c3.9,0,7.8,0.2,11.8-0.1c6.2-0.5,9-4.1,8.4-10.2
		c-0.5-4.7-3.5-7.2-9.4-7.4c-7.4-0.2-14.7-0.1-22-0.1c-2,0-3.1,0.6-3.1,2.8c0.1,4.1,0.1,8.1,0,12.2c-0.1,2.4,1.2,3.1,3.3,3
		C583.4,320.7,587.1,320.7,590.7,320.7z"/>
	<path class="st0" d="M258,315.7c-2.3,9-4.5,17.8-6.7,26.6c-0.3,1.3-0.6,2.4-0.9,3.7c-1.7,7.1-1.7,6.9-9.1,6.7
		c-3.3-0.1-3.8-1.3-3.1-4.2c3.6-13.6,7.1-27.1,10.5-40.8c0.4-1.5,0.8-2.9,1.2-4.4c1.6-6.6,1.6-6.4,8.3-6.4c2.9,0,3.9,1.6,4.9,3.8
		c5,11.3,10.2,22.6,15.3,33.9c0.4,0.9,0.5,2,2,2.7c2.5-5.5,4.9-11,7.4-16.5c3.1-6.9,6.4-13.8,9.3-20.8c1.9-4.5,5.6-2.9,8.8-3.1
		c3.1-0.2,3.2,2.4,3.7,4.4c4.1,15.7,8.1,31.4,12.2,47c0.9,3.3,0,4.5-3.3,4.2c-0.5-0.1-1,0-1.5,0c-5.9,0-5.9,0-7.2-5.6
		c-2.2-9.1-4.4-18.2-6.6-27.3c-0.3-1.2-0.4-2.5-1.4-3.6c-1.6,1.3-2,3-2.7,4.5c-4.3,9.4-8.7,18.8-12.7,28.4c-1.5,3.5-3.9,3.6-7,3.8
		c-3.1,0.1-4.8-1-6-3.9c-4.2-9.9-8.7-19.6-13.2-29.4C259.8,318.2,259.6,316.7,258,315.7z"/>
	<path class="st0" d="M361.2,316c1-1.5-0.2-3.9,2.2-4.2c2.8-0.3,5.8-0.9,8.5,0.5c1,0.5,0.8,1.8,0.8,2.7c0,11.4,0,22.7,0.1,34.2
		c0,2.4-1,3.5-3.4,3.5c-0.9,0-1.8,0-2.7,0c-3.1,0.2-5.7-0.1-5.2-4.4c-13.6,7.3-25.6,6-32.6-3.3c-6.2-8.1-5.7-20.5,0.7-27.8
		C335.4,310.8,349.9,307.5,361.2,316z M349.2,319.4c-7.6,0-12.8,5.1-12.7,12.5c0,7.6,5.3,12.9,12.9,12.9c7.5,0,12.5-4.9,12.5-12.6
		C361.9,324.3,357,319.4,349.2,319.4z"/>
	<path class="st0" d="M476.7,315.9c1-1.2-0.2-3.6,2-3.9c2.9-0.4,5.8-0.8,8.5,0.3c1.1,0.5,0.9,1.7,0.9,2.7c0,11.5,0,23,0,34.5
		c0,2.3-0.9,3.3-3.1,3.3c-1,0-2,0-3.1,0c-2.9,0-6,0.3-4.9-4.5c-12.3,7.4-24.8,6.4-32.1-2.2c-6.6-7.6-6.9-20.2-0.7-27.8
		C451.6,309.5,463.6,308.6,476.7,315.9z M464.8,319.4c-7.8-0.1-13,5.1-12.9,12.7c0.1,7.3,5.4,12.6,12.7,12.8c7.7,0.1,13-5,13.1-12.6
		C477.8,324.7,472.5,319.5,464.8,319.4z"/>
	<path class="st0" d="M503.1,324.6c0-7.8,0-15.7,0-23.5c0-2.3,0.3-4.1,3.2-4c9.9,0.3,19.8-0.7,29.6,0.6c15,2.1,24.3,13.2,23.8,28
		c-0.5,15.1-10.4,25.2-25.4,26.5c-9.1,0.8-18.2,0.2-27.3,0.5c-2.7,0.1-3.8-1-3.8-3.8C503.2,340.8,503.1,332.7,503.1,324.6z
		 M511,324.5c0,6.2,0,12.4,0,18.6c0,1.6,0,3.4,2.1,3.4c7.7,0,15.4,1.1,23.1-0.7c10.4-2.5,15.5-11,14.7-23.7
		c-0.6-10-6.9-16.9-16.8-18.6c-6.5-1.1-13.1-0.4-19.7-0.7c-2.7-0.2-3.6,0.9-3.5,3.5C511.1,312.3,511,318.5,511,324.5z"/>
	<path class="st0" d="M396.5,317.7c4.8-5.2,10-7.9,16.9-6.4c1.5,0.3,3.5,0.4,2.8,2.6c-0.7,2.4-0.1,5.6-3.7,6.3
		c-0.9,0.2-1.7-0.1-2.7-0.2c-7.7-0.5-13.3,4.2-13.6,11.9c-0.2,5.4-0.2,10.9-0.1,16.3c0.1,3.1-1,4.5-4.3,4.5
		c-7.3,0.1-7.3,0.2-7.3-7.2c0-9.9,0.1-19.8-0.1-29.6c-0.1-3.4,1.2-4.7,4.5-4.3c0.4,0,0.8,0,1.2,0
		C395.8,311.6,395.8,311.6,396.5,317.7z"/>
	<path class="st0" d="M421.1,328.8c0-4.4,0.1-8.9-0.1-13.3c-0.1-3.1,1.2-4.2,4.1-3.9c0.4,0,0.8,0,1.2,0c6.4-0.1,6.4,0,6.4,6.2
		c0,7.2,0,14.4,0,21.6c0,2-0.1,3.6,2.7,4.6c2.4,0.9,2.1,4.3,2.1,6.7c0,2-2,1.9-3.5,2.1c-7.9,1.5-12.2-1.6-12.8-9.7
		C420.8,338.5,421.1,333.7,421.1,328.8L421.1,328.8z"/>
	<path class="st0" d="M426.6,296.2c3.6-0.1,6,2.2,6.1,5.6c0.1,3.3-2.5,6-6,6s-5.9-2.5-5.9-6C421,298.3,423.1,296.3,426.6,296.2z"/>
</g>
</svg>
