<?xml version="1.0" encoding="iso-8859-1"?>
<!-- Generator: Adobe Illustrator 19.0.0, SVG Export Plug-In . SVG Version: 6.00 Build 0)  -->
<svg version="1.1" id="Layer_1" xmlns="http://www.w3.org/2000/svg" xmlns:xlink="http://www.w3.org/1999/xlink" x="0px" y="0px"
	 viewBox="0 0 496.158 496.158" style="enable-background:new 0 0 496.158 496.158;" xml:space="preserve">
<path style="fill:#6DB4BF;" d="M248.082,0.003C111.07,0.003,0,111.063,0,248.085c0,137.001,111.07,248.07,248.082,248.07
	c137.006,0,248.076-111.069,248.076-248.07C496.158,111.062,385.088,0.003,248.082,0.003z"/>
<path style="fill:#6B828F;" d="M390.197,354.164c-0.854-1.206-21.219-29.855-48.109-58.969
	c-38.545-41.733-69.401-62.02-94.328-62.02c-24.943,0-55.702,20.297-94.037,62.05c-26.734,29.118-46.944,57.774-47.791,58.98
	c-3.242,4.614-3.353,10.735-0.279,15.463c2.578,3.967,6.962,6.284,11.575,6.284c0.886,0,1.779-0.086,2.671-0.261
	c0.672-0.132,67.872-13.229,127.465-13.229c59.623,0,128.263,13.106,128.949,13.239c5.54,1.069,11.166-1.338,14.222-6.077
	C393.589,364.886,393.456,358.765,390.197,354.164z"/>
<circle style="fill:#CCD0D3;" cx="248.079" cy="223.129" r="102.93"/>
<circle style="fill:#7A7A7A;" cx="248.079" cy="223.129" r="43.933"/>
<circle style="fill:#636363;" cx="248.079" cy="223.129" r="30.12"/>
<circle style="fill:#545454;" cx="248.079" cy="223.129" r="24.267"/>
<path style="fill:#828282;" d="M253.104,204.7c-4.739-4.739-13.827-3.334-20.298,3.138c-6.471,6.47-7.876,15.559-3.137,20.298
	C234.406,232.873,257.844,209.437,253.104,204.7z"/>
<path style="fill:#B7B7B7;" d="M248.079,120.205c-13.428,0-26.253,2.574-38.015,7.251c1.223,19.504,17.771,34.956,38.015,34.956
	c20.245,0,36.793-15.451,38.016-34.956C274.333,122.78,261.508,120.205,248.079,120.205z"/>
<ellipse style="fill:#8C8C8C;" cx="248.009" cy="139.749" rx="10.5" ry="6.552"/>
<ellipse style="fill:#7C7C7C;" cx="248.009" cy="139.749" rx="8.925" ry="5.57"/>
<g>
</g>
<g>
</g>
<g>
</g>
<g>
</g>
<g>
</g>
<g>
</g>
<g>
</g>
<g>
</g>
<g>
</g>
<g>
</g>
<g>
</g>
<g>
</g>
<g>
</g>
<g>
</g>
<g>
</g>
</svg>
